<?xml version="1.0" encoding="utf-8"?>
<!-- Generator: Adobe Illustrator 25.4.1, SVG Export Plug-In . SVG Version: 6.00 Build 0)  -->
<svg version="1.1" id="Layer_1" xmlns="http://www.w3.org/2000/svg" xmlns:xlink="http://www.w3.org/1999/xlink" x="0px" y="0px"
	 viewBox="0 0 178 65" style="enable-background:new 0 0 178 65;" xml:space="preserve">
<style type="text/css">
	.st0{fill:#FFFFFF;}
</style>
<g>
	<path class="st0" d="M90.9,59.2c0.8-0.5,1.2-1.3,1.2-2.1c0-0.6-0.1-1.2-0.6-1.7c-0.7-0.8-1.5-1-3.3-1h-3.1v10.3h3.2
		c1.7,0,2.4-0.1,3.3-0.9c0.6-0.5,0.9-1.4,0.9-2.2C92.6,61.2,92.6,59.8,90.9,59.2z M87.6,56.8h0.9c0.4,0,1.1,0,1.1,0.8
		c0,0.8-0.7,0.8-1.1,0.8h-0.9V56.8z M88.8,62.4h-1.2v-1.9h1.2c0.4,0,1.3,0,1.3,0.9C90.1,62.4,89.1,62.4,88.8,62.4z"/>
	<path class="st0" d="M115.5,54.5l-4.1,10.3h2.8l0.5-1.5h3.6l0.5,1.5h2.9l-4.1-10.3H115.5z M115.4,61.2l1.1-3.5h0h0l1.1,3.5H115.4z"
		/>
	<polygon class="st0" points="146.5,60.9 146.5,60.9 142.6,54.5 140.4,54.5 140.4,64.8 142.8,64.8 142.8,58.5 142.8,58.5 
		146.6,64.8 148.8,64.8 148.8,54.5 146.4,54.5 	"/>
	<polygon class="st0" points="176.7,54.5 174,54.5 171.1,59.1 171.1,59.1 171.1,54.5 168.5,54.5 168.5,64.8 171.1,64.8 171.1,60.3 
		171.1,60.3 173.9,64.8 176.9,64.8 173.3,59.6 	"/>
	<polygon class="st0" points="89.4,12.9 96.2,12.9 96.2,9.1 89.4,9.1 89.4,3.9 96.3,3.9 96.3,0.1 85.1,0.1 85.1,21.7 89.4,21.7 	"/>
	<rect x="104.8" y="0.1" class="st0" width="4.7" height="21.6"/>
	<path class="st0" d="M123.2,3.9h2.6c1.2,0,2.3,0.2,3.1,0.7c1,0.6,1.6,1.8,1.6,3.1c0,1.3-0.5,2.5-1.4,3.1c-0.9,0.7-2.4,0.8-3.9,0.8
		h-0.8l5.9,10h4.6l-4.8-8c1.4-0.3,2.6-1,3.6-2.3c0.7-1.1,1.2-2.4,1.2-4c0-2.4-1-4.6-2.8-5.8c-1.2-0.9-3.1-1.4-6.5-1.4h-6.6v21.6h4.4
		V3.9z"/>
	<path class="st0" d="M156.3,15.2c0-2.9-1.8-4.5-4.9-5.9c-3.5-1.4-4.6-1.8-4.6-3.4c0-1.4,1.2-2.4,2.6-2.4c2.1,0,2.4,1.6,2.6,2.5h4.1
		c-0.2-4.6-3.8-6-6.6-6c-3.4,0-6.9,2.2-6.9,6.2c0,3.9,3.6,5.2,5.2,5.8c2.9,1.1,4.4,1.6,4.4,3.4c0,1.5-1.2,2.7-2.8,2.7
		c-0.9,0-2.8-0.5-2.9-3.3h-4.2c0,4,2.4,6.9,7.1,6.9C154.3,21.7,156.3,18.6,156.3,15.2z"/>
	<polygon class="st0" points="167.4,21.7 171.5,21.7 171.5,3.9 176,3.9 176,0.1 162.9,0.1 162.9,3.9 167.4,3.9 	"/>
	<polygon class="st0" points="85.1,48.8 97.3,48.8 97.3,45 89.5,45 89.5,39.8 97.1,39.8 97.1,36 89.5,36 89.5,31.1 97.3,31.1 
		97.3,27.3 85.1,27.3 	"/>
	<path class="st0" d="M116.1,48.8h4.7l-8.3-21.6h-3.8l-8.5,21.6h4.6l1.5-4.2h8.3L116.1,48.8z M107.3,41.1l3-8.7l3.1,8.7H107.3z"/>
	<path class="st0" d="M144.1,42.6c0.8-1.8,1-3.8,1-5.2h-12.8v3.4h7.9c-0.3,1.2-1.1,2.4-2.2,3.1c-1.1,0.8-2.5,1.3-4.2,1.3
		c-3.4,0-6.9-2.5-6.9-7.2c0-4.5,3.5-7,6.9-7c1.6,0,3,0.5,4.1,1.4c0.6,0.5,1.2,1.1,1.6,1.7h4.8c-1.4-3.8-5.6-6.8-10.4-6.8
		c-6.2,0-11.3,4.5-11.3,10.7c0,6,4.9,10.8,11.2,10.8C137.6,48.8,142.1,46.9,144.1,42.6z"/>
	<polygon class="st0" points="154,27.3 149.8,27.3 149.8,48.8 161,48.8 161,45 154,45 	"/>
	<polygon class="st0" points="176.9,31.1 176.9,27.3 164.7,27.3 164.7,48.8 176.9,48.8 176.9,45 169.1,45 169.1,39.8 176.8,39.8 
		176.8,36 169.1,36 169.1,31.1 	"/>
	<path class="st0" d="M58.7,0.1c-8.5,0-16.9,0-25.4,0c-8.5,0-17,0-25.5,0c-2,0-3.7,0.8-5,2.2C1.5,3.6,1.1,5.3,1.1,7
		c0,16.8,0,33.7,0,50.5c0,4.2,3.1,7.3,7.3,7.3c16.8,0,33.5,0,50.3,0c1.6,0,3.1-0.4,4.4-1.5c1.8-1.5,2.9-3.4,2.9-5.7
		c0-16.8,0-33.6,0-50.4c0-0.5,0-1-0.2-1.5C65,2.4,62.1,0.1,58.7,0.1z M61.2,63c-0.8,0.4-1.7,0.5-2.6,0.5c-10.8,0-21.5,0-32.3,0
		c-6,0-12,0-18,0c-3,0-5.3-1.9-5.8-4.7c-0.1-0.5-0.1-1-0.1-1.5c0-8.3,0-16.7,0-25c0-8.4,0-16.7,0-25.1c0-1.1,0.2-2.1,0.7-3.1
		C3.3,3.8,3.4,3.7,3.7,4c5.6,5.6,11.2,11.3,16.8,16.9c0.5,0.5,0.9,0.7,1.6,0.7c6.4,0,12.7,0,19.1-0.1c1.7,0,3.2,0.4,4.3,1.7
		c0.5,0.6,1,1.2,1.3,1.9c0.1,0.2,0.2,0.3,0.4,0.2c3.4-1.1,6.7-0.9,9.8,0.8c1.7,1,2.7,2.5,2.8,4.6c0,0.2,0.1,0.4-0.3,0.4
		c-1.9-0.2-3.7,0.2-5.5,0.7c-1.8,0.5-3.6,1.3-5.3,2.2c-0.2,0.1-0.3,0.2-0.4,0.3c-2.4,2.3-4.8,4.6-7.2,6.9c-0.3,0.3-0.3,0.4,0,0.7
		c3.8,3.8,7.6,7.7,11.4,11.5c2.9,3,5.9,6,8.8,9C61.6,62.7,61.6,62.8,61.2,63z"/>
</g>
</svg>
